<?xml version="1.0" encoding="UTF-8" standalone="no"?><!DOCTYPE svg PUBLIC "-//W3C//DTD SVG 1.1//EN" "http://www.w3.org/Graphics/SVG/1.1/DTD/svg11.dtd"><svg width="100%" height="100%" viewBox="0 0 142 184" version="1.1" xmlns="http://www.w3.org/2000/svg" xmlns:xlink="http://www.w3.org/1999/xlink" xml:space="preserve" xmlns:serif="http://www.serif.com/" style="fill-rule:evenodd;clip-rule:evenodd;stroke-linecap:round;stroke-linejoin:round;stroke-miterlimit:1.5;"><g id="Elevator"><g><path d="M40.167,72.354l12,-6l0,-9.75l27,0l0,11.25l-13.5,4.5l-25.5,0Z" style="fill:none;stroke:#55f557;stroke-width:4.29px;"/><path d="M85.917,2.604l0,107.25" style="fill:none;stroke:#ff0;stroke-width:5.21px;"/><path d="M136.917,69.917l0,7.687l0,-15.375l0,-15.375l0,7.688l-15.239,0l0,-7.688l-19.261,15.375l19.261,15.375l0,-7.687l15.239,0Z" style="fill:none;stroke:#55f557;stroke-width:3.83px;"/><path d="M102.417,69.917l0,7.687l0,-15.375l0,-15.375l0,7.688l15.238,0l0,-7.688l19.262,15.375l-19.262,15.375l0,-7.687l-15.238,0Z" style="fill:none;stroke:#55f557;stroke-width:3.83px;"/></g><g id="Cargo"><circle cx="40.542" cy="143.229" r="31.875" style="fill:none;stroke:#ff7c00;stroke-width:4.29px;"/><path d="M82.167,153.917l0,7.687l0,-15.375l0,-15.375l0,7.688l38.488,0l0,-7.688l19.262,15.375l-19.262,15.375l0,-7.687l-38.488,0Z" style="fill:none;stroke:#55f557;stroke-width:3.83px;"/><path d="M139.917,153.917l0,7.687l0,-15.375l0,-15.375l0,7.688l-38.489,0l0,-7.688l-19.261,15.375l19.261,15.375l0,-7.687l38.489,0Z" style="fill:none;stroke:#55f557;stroke-width:3.83px;"/><path d="M116.667,153.917l0,7.687l0,-15.375l0,-15.375l0,7.688l-15.239,0l0,-7.688l-19.261,15.375l19.261,15.375l0,-7.687l15.239,0Z" style="fill:none;stroke:#55f557;stroke-width:3.83px;"/><path d="M82.167,153.917l0,7.687l0,-15.375l0,-15.375l0,7.688l15.238,0l0,-7.688l19.262,15.375l-19.262,15.375l0,-7.687l-15.238,0Z" style="fill:none;stroke:#55f557;stroke-width:3.83px;"/></g><path d="M1.917,181.854l17.25,0l52.5,-69.75l0,-39.75l-62.25,0c0,0 0,35.653 0,36c0,0.347 -7.5,7.5 -7.5,7.5l0,66Z" style="fill:none;stroke:#55f557;stroke-width:3.83px;"/></g></svg>