<?xml version="1.0" encoding="UTF-8" standalone="no"?><!DOCTYPE svg PUBLIC "-//W3C//DTD SVG 1.1//EN" "http://www.w3.org/Graphics/SVG/1.1/DTD/svg11.dtd"><svg width="100%" height="100%" viewBox="0 0 1172 582" version="1.1" xmlns="http://www.w3.org/2000/svg" xmlns:xlink="http://www.w3.org/1999/xlink" xml:space="preserve" xmlns:serif="http://www.serif.com/" style="fill-rule:evenodd;clip-rule:evenodd;stroke-linecap:round;stroke-linejoin:round;stroke-miterlimit:1.5;"><path d="M432,271.5l0,18.75" style="fill:none;stroke:#f00;stroke-width:2px;"/><path d="M360.75,579l0,-12.75l27,-43.5l46.5,0l27,42.75l0,13.5" style="fill:none;stroke:#f00;stroke-width:0.83px;"/><path d="M360.75,2.25l0,12.75l27,43.5l46.5,0l27,-42.75l0,-13.5" style="fill:none;stroke:#f00;stroke-width:0.83px;"/><path d="M807,579l0,-12.75l-27,-43.5l-46.5,0l-27,42.75l0,13.5" style="fill:none;stroke:url(#_Linear1);stroke-width:0.83px;"/><path d="M807,2.25l0,12.75l-27,43.5l-46.5,0l-27,-42.75l0,-13.5" style="fill:none;stroke:url(#_Linear2);stroke-width:0.83px;"/><path d="M432.75,271.5l17.25,-3l0,-27.75" style="fill:none;stroke:#f00;stroke-width:2px;"/><path d="M564.75,268.5l-114.75,0l114.75,0Z" style="fill:none;stroke:#f00;stroke-width:2px;"/><path d="M564.75,240.75l0,27.75" style="fill:none;stroke:#f00;stroke-width:2px;"/><path d="M396.75,250.5c0,0 16.944,17.963 36,21" style="fill:none;stroke:#f00;stroke-width:2px;"/><path d="M432,309.75l0,-18.75" style="fill:none;stroke:#f00;stroke-width:2px;"/><path d="M432.75,309.75l17.25,3l0,27.75" style="fill:none;stroke:#f00;stroke-width:2px;"/><path d="M564.75,312.75l-114.75,0l114.75,0Z" style="fill:none;stroke:#f00;stroke-width:2px;"/><path d="M564.75,340.5l0,-27.75" style="fill:none;stroke:#f00;stroke-width:2px;"/><path d="M396.75,330.75c0,0 16.944,-17.963 36,-21" style="fill:none;stroke:#f00;stroke-width:2px;"/><path d="M1.5,405.75l81.75,0" style="stroke:#f00;stroke-width:4.29px;"/><path d="M1.5,175.5l81.75,0" style="stroke:#f00;stroke-width:4.29px;"/><path d="M395.25,330l0,-12.75l6,0l0,-14.25l-6,0l0,-24.75l6,0l0,-14.25l-6,0l0,-12.75l54,-11.25l0.75,0.75l11.25,0l0,5.25l13.5,0l0,-5.25l25.5,0l0,5.25l14.25,0l0,-5.25l24.75,0l0,5.25l14.25,0l0,-5.25l30,0" style="fill:none;stroke:#f00;stroke-width:2px;"/><path d="M395.25,251.25l0,12.75l6,0l0,14.25l-6,0l0,24.75l6,0l0,14.25l-6,0l0,12.75l54,11.25l0.75,-0.75l11.25,0l0,-5.25l13.5,0l0,5.25l25.5,0l0,-5.25l14.25,0l0,5.25l24.75,0l0,-5.25l14.25,0l0,5.25l30,0" style="fill:none;stroke:#f00;stroke-width:2px;"/><path d="M2.25,247.5l82.5,0" style="fill:none;stroke:#f00;stroke-width:1.54px;"/><path d="M84.75,175.5l0,229.5" style="fill:none;stroke:#f00;stroke-width:1.54px;"/><path d="M150,405.75l20.25,20.25" style="fill:none;stroke:#f00;stroke-width:2.46px;"/><path d="M150,175.5l20.25,-20.25" style="fill:none;stroke:#f00;stroke-width:2.46px;"/><path d="M84,155.25l87.75,0l0,270.75l-87.75,0" style="fill:none;stroke:#f00;stroke-width:2.46px;"/><path d="M83.25,406.5l0,42.75l-81.75,0.75" style="fill:none;stroke:#ff0f0f;stroke-width:4.29px;stroke-linecap:butt;"/><path d="M83.25,174.75l0,-42.75l-80.25,-0.75" style="fill:none;stroke:#ff0f0f;stroke-width:4.29px;stroke-linecap:butt;"/><path d="M573,581.25l-573,0l0,-581.25l573.75,0" style="fill:none;stroke:#ff0f0f;stroke-width:6.58px;stroke-linecap:butt;"/><path d="M571.103,0l0,240" style="fill:none;stroke:#ff0f0f;stroke-width:4.29px;stroke-linecap:butt;"/><path d="M571.103,341.25l0,243" style="fill:none;stroke:#ff0f0f;stroke-width:4.29px;stroke-linecap:butt;"/><path d="M1.5,405.75l148.5,0l0,-230.25l-148.5,0" style="fill:none;stroke:#f00;stroke-width:2.46px;"/><path d="M1.5,333.75l83.25,0" style="fill:none;stroke:#f00;stroke-width:1.54px;"/><path d="M3,47.25l28.5,0" style="fill:none;stroke:#fff;stroke-width:5.67px;stroke-linecap:butt;"/><path d="M411,83.25l0,-32.25" style="fill:none;stroke:#fff;stroke-width:5.67px;stroke-linecap:butt;"/><path d="M355.5,49.5l29.25,-16.5" style="fill:none;stroke:#fff;stroke-width:5.67px;stroke-linecap:butt;"/><path d="M466.5,49.5l-29.25,-16.5" style="fill:none;stroke:#fff;stroke-width:5.67px;stroke-linecap:butt;"/><path d="M411,498l0,32.25" style="fill:none;stroke:#fff;stroke-width:5.67px;stroke-linecap:butt;"/><path d="M468,336l0,38.25" style="fill:none;stroke:#fff;stroke-width:5.67px;stroke-linecap:butt;"/><path d="M507,336l0,38.25" style="fill:none;stroke:#fff;stroke-width:5.67px;stroke-linecap:butt;"/><path d="M546.75,336l0,38.25" style="fill:none;stroke:#fff;stroke-width:5.67px;stroke-linecap:butt;"/><path d="M361.875,310.125l38.25,0" style="fill:none;stroke:#fff;stroke-width:5.67px;stroke-linecap:butt;"/><path d="M468,245.25l0,-38.25" style="fill:none;stroke:#fff;stroke-width:5.67px;stroke-linecap:butt;"/><path d="M507,245.25l0,-38.25" style="fill:none;stroke:#fff;stroke-width:5.67px;stroke-linecap:butt;"/><path d="M546.75,245.25l0,-38.25" style="fill:none;stroke:#fff;stroke-width:5.67px;stroke-linecap:butt;"/><path d="M361.875,271.125l38.25,0" style="fill:none;stroke:#fff;stroke-width:5.67px;stroke-linecap:butt;"/><path d="M355.5,531.75l29.25,16.5" style="fill:none;stroke:#fff;stroke-width:5.67px;stroke-linecap:butt;"/><path d="M466.5,531.75l-29.25,16.5" style="fill:none;stroke:#fff;stroke-width:5.67px;stroke-linecap:butt;"/><path d="M3,534.53l28.5,0" style="fill:none;stroke:#fff;stroke-width:5.67px;stroke-linecap:butt;"/><path d="M170.25,3l0,150.75" style="fill:none;stroke:#fff;stroke-width:5.67px;stroke-linecap:butt;"/><path d="M170.25,427.5l0,150.75" style="fill:none;stroke:#fff;stroke-width:5.67px;stroke-linecap:butt;"/><path d="M374.25,15l73.5,0l-19.5,34.5l-34.5,0.75l-19.5,-35.25Z" style="fill:none;stroke:#f00;stroke-width:2.46px;"/><path d="M374.25,566.25l73.5,0l-19.5,-34.5l-34.5,-0.75l-19.5,35.25Z" style="fill:none;stroke:#f00;stroke-width:2.46px;"/><path d="M735.75,271.5l0,18.75" style="fill:none;stroke:url(#_Linear3);stroke-width:2px;"/><path d="M735,271.5l-17.25,-3l0,-27.75" style="fill:none;stroke:url(#_Linear4);stroke-width:2px;"/><path d="M603,268.5l114.75,0l-114.75,0Z" style="fill:none;stroke:url(#_Linear5);stroke-width:2px;"/><path d="M603,240.75l0,27.75" style="fill:none;stroke:url(#_Linear6);stroke-width:2px;"/><path d="M771,250.5c0,0 -16.944,17.963 -36,21" style="fill:none;stroke:url(#_Linear7);stroke-width:2px;"/><path d="M735.75,309.75l0,-18.75" style="fill:none;stroke:url(#_Linear8);stroke-width:2px;"/><path d="M735,309.75l-17.25,3l0,27.75" style="fill:none;stroke:url(#_Linear9);stroke-width:2px;"/><path d="M603,312.75l114.75,0l-114.75,0Z" style="fill:none;stroke:url(#_Linear10);stroke-width:2px;"/><path d="M603,340.5l0,-27.75" style="fill:none;stroke:url(#_Linear11);stroke-width:2px;"/><path d="M771,330.75c0,0 -16.944,-17.963 -36,-21" style="fill:none;stroke:url(#_Linear12);stroke-width:2px;"/><path d="M1166.25,405.75l-81.75,0" style="fill:none;stroke:url(#_Linear13);stroke-width:4.29px;"/><path d="M1166.25,175.5l-81.75,0" style="fill:none;stroke:url(#_Linear14);stroke-width:4.29px;"/><path d="M772.5,330l0,-12.75l-6,0l0,-14.25l6,0l0,-24.75l-6,0l0,-14.25l6,0l0,-12.75l-54,-11.25l-0.75,0.75l-11.25,0l0,5.25l-13.5,0l0,-5.25l-25.5,0l0,5.25l-14.25,0l0,-5.25l-24.75,0l0,5.25l-14.25,0l0,-5.25l-30,0" style="fill:none;stroke:url(#_Linear15);stroke-width:2px;"/><path d="M772.5,251.25l0,12.75l-6,0l0,14.25l6,0l0,24.75l-6,0l0,14.25l6,0l0,12.75l-54,11.25l-0.75,-0.75l-11.25,0l0,-5.25l-13.5,0l0,5.25l-25.5,0l0,-5.25l-14.25,0l0,5.25l-24.75,0l0,-5.25l-14.25,0l0,5.25l-30,0" style="fill:none;stroke:url(#_Linear16);stroke-width:2px;"/><path d="M1165.5,247.5l-82.5,0" style="fill:none;stroke:url(#_Linear17);stroke-width:1.54px;"/><path d="M1083,175.5l0,229.5" style="fill:none;stroke:url(#_Linear18);stroke-width:1.54px;"/><path d="M1017.75,405.75l-20.25,20.25" style="fill:none;stroke:url(#_Linear19);stroke-width:2.46px;"/><path d="M1017.75,175.5l-20.25,-20.25" style="fill:none;stroke:url(#_Linear20);stroke-width:2.46px;"/><path d="M1083.75,155.25l-87.75,0l0,270.75l87.75,0" style="fill:none;stroke:url(#_Linear21);stroke-width:2.46px;"/><path d="M1084.5,406.5l0,42.75l81.75,0.75" style="fill:none;stroke:url(#_Linear22);stroke-width:4.29px;stroke-linecap:butt;"/><path d="M1084.5,174.75l0,-42.75l80.25,-0.75" style="fill:none;stroke:url(#_Linear23);stroke-width:4.29px;stroke-linecap:butt;"/><path d="M594.75,581.25l573,0l0,-581.25l-573.75,0" style="fill:none;stroke:url(#_Linear24);stroke-width:6.58px;stroke-linecap:butt;"/><path d="M596.647,0l0,240" style="fill:none;stroke:url(#_Linear25);stroke-width:4.29px;stroke-linecap:butt;"/><path d="M596.647,341.25l0,243" style="fill:none;stroke:url(#_Linear26);stroke-width:4.29px;stroke-linecap:butt;"/><path d="M1166.25,405.75l-148.5,0l0,-230.25l148.5,0" style="fill:none;stroke:url(#_Linear27);stroke-width:2.46px;"/><path d="M1166.25,333.75l-83.25,0" style="fill:none;stroke:url(#_Linear28);stroke-width:1.54px;"/><path d="M1164.75,47.25l-28.5,0" style="fill:none;stroke:#fff;stroke-width:5.67px;stroke-linecap:butt;"/><path d="M756.75,83.25l0,-32.25" style="fill:none;stroke:#fff;stroke-width:5.67px;stroke-linecap:butt;"/><path d="M812.25,49.5l-29.25,-16.5" style="fill:none;stroke:#fff;stroke-width:5.67px;stroke-linecap:butt;"/><path d="M701.25,49.5l29.25,-16.5" style="fill:none;stroke:#fff;stroke-width:5.67px;stroke-linecap:butt;"/><path d="M756.75,498l0,32.25" style="fill:none;stroke:#fff;stroke-width:5.67px;stroke-linecap:butt;"/><path d="M699.75,336l0,38.25" style="fill:none;stroke:#fff;stroke-width:5.67px;stroke-linecap:butt;"/><path d="M660.75,336l0,38.25" style="fill:none;stroke:#fff;stroke-width:5.67px;stroke-linecap:butt;"/><path d="M621,336l0,38.25" style="fill:none;stroke:#fff;stroke-width:5.67px;stroke-linecap:butt;"/><path d="M805.875,310.125l-38.25,0" style="fill:none;stroke:#fff;stroke-width:5.67px;stroke-linecap:butt;"/><path d="M699.75,245.25l0,-38.25" style="fill:none;stroke:#fff;stroke-width:5.67px;stroke-linecap:butt;"/><path d="M660.75,245.25l0,-38.25" style="fill:none;stroke:#fff;stroke-width:5.67px;stroke-linecap:butt;"/><path d="M621,245.25l0,-38.25" style="fill:none;stroke:#fff;stroke-width:5.67px;stroke-linecap:butt;"/><path d="M805.875,271.125l-38.25,0" style="fill:none;stroke:#fff;stroke-width:5.67px;stroke-linecap:butt;"/><path d="M812.25,531.75l-29.25,16.5" style="fill:none;stroke:#fff;stroke-width:5.67px;stroke-linecap:butt;"/><path d="M701.25,531.75l29.25,16.5" style="fill:none;stroke:#fff;stroke-width:5.67px;stroke-linecap:butt;"/><path d="M1164.75,534.53l-28.5,0" style="fill:none;stroke:#fff;stroke-width:5.67px;stroke-linecap:butt;"/><path d="M997.5,3l0,150.75" style="fill:none;stroke:#fff;stroke-width:5.67px;stroke-linecap:butt;"/><path d="M997.5,427.5l0,150.75" style="fill:none;stroke:#fff;stroke-width:5.67px;stroke-linecap:butt;"/><path d="M793.5,15l-73.5,0l19.5,34.5l34.5,0.75l19.5,-35.25Z" style="fill:none;stroke:url(#_Linear29);stroke-width:2.46px;"/><path d="M793.5,566.25l-73.5,0l19.5,-34.5l34.5,-0.75l19.5,35.25Z" style="fill:none;stroke:url(#_Linear30);stroke-width:2.46px;"/><rect x="583.5" y="0" width="0.75" height="240" style="fill:#fff;stroke:#fff;stroke-width:2.46px;"/><rect x="583.5" y="341.25" width="0.75" height="240" style="fill:#fff;stroke:#fff;stroke-width:2.46px;"/><defs><linearGradient id="_Linear1" x1="0" y1="0" x2="1" y2="0" gradientUnits="userSpaceOnUse" gradientTransform="matrix(2e-06,0,0,2e-06,581.25,-56.25)"><stop offset="0" style="stop-color:#00f;stop-opacity:1"/><stop offset="1" style="stop-color:#2c31ff;stop-opacity:1"/></linearGradient><linearGradient id="_Linear2" x1="0" y1="0" x2="1" y2="0" gradientUnits="userSpaceOnUse" gradientTransform="matrix(2e-06,0,0,2e-06,581.25,-56.25)"><stop offset="0" style="stop-color:#00f;stop-opacity:1"/><stop offset="1" style="stop-color:#2c31ff;stop-opacity:1"/></linearGradient><linearGradient id="_Linear3" x1="0" y1="0" x2="1" y2="0" gradientUnits="userSpaceOnUse" gradientTransform="matrix(2e-06,0,0,2e-06,581.25,-56.25)"><stop offset="0" style="stop-color:#00f;stop-opacity:1"/><stop offset="1" style="stop-color:#2c31ff;stop-opacity:1"/></linearGradient><linearGradient id="_Linear4" x1="0" y1="0" x2="1" y2="0" gradientUnits="userSpaceOnUse" gradientTransform="matrix(2e-06,0,0,2e-06,581.25,-56.25)"><stop offset="0" style="stop-color:#00f;stop-opacity:1"/><stop offset="1" style="stop-color:#2c31ff;stop-opacity:1"/></linearGradient><linearGradient id="_Linear5" x1="0" y1="0" x2="1" y2="0" gradientUnits="userSpaceOnUse" gradientTransform="matrix(2e-06,0,0,2e-06,581.25,-56.25)"><stop offset="0" style="stop-color:#00f;stop-opacity:1"/><stop offset="1" style="stop-color:#2c31ff;stop-opacity:1"/></linearGradient><linearGradient id="_Linear6" x1="0" y1="0" x2="1" y2="0" gradientUnits="userSpaceOnUse" gradientTransform="matrix(2e-06,0,0,2e-06,581.25,-56.25)"><stop offset="0" style="stop-color:#00f;stop-opacity:1"/><stop offset="1" style="stop-color:#2c31ff;stop-opacity:1"/></linearGradient><linearGradient id="_Linear7" x1="0" y1="0" x2="1" y2="0" gradientUnits="userSpaceOnUse" gradientTransform="matrix(2e-06,0,0,2e-06,581.25,-56.25)"><stop offset="0" style="stop-color:#00f;stop-opacity:1"/><stop offset="1" style="stop-color:#2c31ff;stop-opacity:1"/></linearGradient><linearGradient id="_Linear8" x1="0" y1="0" x2="1" y2="0" gradientUnits="userSpaceOnUse" gradientTransform="matrix(2e-06,0,0,2e-06,581.25,-56.25)"><stop offset="0" style="stop-color:#00f;stop-opacity:1"/><stop offset="1" style="stop-color:#2c31ff;stop-opacity:1"/></linearGradient><linearGradient id="_Linear9" x1="0" y1="0" x2="1" y2="0" gradientUnits="userSpaceOnUse" gradientTransform="matrix(2e-06,0,0,2e-06,581.25,-56.25)"><stop offset="0" style="stop-color:#00f;stop-opacity:1"/><stop offset="1" style="stop-color:#2c31ff;stop-opacity:1"/></linearGradient><linearGradient id="_Linear10" x1="0" y1="0" x2="1" y2="0" gradientUnits="userSpaceOnUse" gradientTransform="matrix(2e-06,0,0,2e-06,581.25,-56.25)"><stop offset="0" style="stop-color:#00f;stop-opacity:1"/><stop offset="1" style="stop-color:#2c31ff;stop-opacity:1"/></linearGradient><linearGradient id="_Linear11" x1="0" y1="0" x2="1" y2="0" gradientUnits="userSpaceOnUse" gradientTransform="matrix(2e-06,0,0,2e-06,581.25,-56.25)"><stop offset="0" style="stop-color:#00f;stop-opacity:1"/><stop offset="1" style="stop-color:#2c31ff;stop-opacity:1"/></linearGradient><linearGradient id="_Linear12" x1="0" y1="0" x2="1" y2="0" gradientUnits="userSpaceOnUse" gradientTransform="matrix(2e-06,0,0,2e-06,581.25,-56.25)"><stop offset="0" style="stop-color:#00f;stop-opacity:1"/><stop offset="1" style="stop-color:#2c31ff;stop-opacity:1"/></linearGradient><linearGradient id="_Linear13" x1="0" y1="0" x2="1" y2="0" gradientUnits="userSpaceOnUse" gradientTransform="matrix(2e-06,0,0,2e-06,581.25,-56.25)"><stop offset="0" style="stop-color:#00f;stop-opacity:1"/><stop offset="1" style="stop-color:#2c31ff;stop-opacity:1"/></linearGradient><linearGradient id="_Linear14" x1="0" y1="0" x2="1" y2="0" gradientUnits="userSpaceOnUse" gradientTransform="matrix(2e-06,0,0,2e-06,581.25,-56.25)"><stop offset="0" style="stop-color:#00f;stop-opacity:1"/><stop offset="1" style="stop-color:#2c31ff;stop-opacity:1"/></linearGradient><linearGradient id="_Linear15" x1="0" y1="0" x2="1" y2="0" gradientUnits="userSpaceOnUse" gradientTransform="matrix(2e-06,0,0,2e-06,581.25,-56.25)"><stop offset="0" style="stop-color:#00f;stop-opacity:1"/><stop offset="1" style="stop-color:#2c31ff;stop-opacity:1"/></linearGradient><linearGradient id="_Linear16" x1="0" y1="0" x2="1" y2="0" gradientUnits="userSpaceOnUse" gradientTransform="matrix(2e-06,0,0,2e-06,581.25,-56.25)"><stop offset="0" style="stop-color:#00f;stop-opacity:1"/><stop offset="1" style="stop-color:#2c31ff;stop-opacity:1"/></linearGradient><linearGradient id="_Linear17" x1="0" y1="0" x2="1" y2="0" gradientUnits="userSpaceOnUse" gradientTransform="matrix(2e-06,0,0,2e-06,581.25,-56.25)"><stop offset="0" style="stop-color:#00f;stop-opacity:1"/><stop offset="1" style="stop-color:#2c31ff;stop-opacity:1"/></linearGradient><linearGradient id="_Linear18" x1="0" y1="0" x2="1" y2="0" gradientUnits="userSpaceOnUse" gradientTransform="matrix(2e-06,0,0,2e-06,581.25,-56.25)"><stop offset="0" style="stop-color:#00f;stop-opacity:1"/><stop offset="1" style="stop-color:#2c31ff;stop-opacity:1"/></linearGradient><linearGradient id="_Linear19" x1="0" y1="0" x2="1" y2="0" gradientUnits="userSpaceOnUse" gradientTransform="matrix(2e-06,0,0,2e-06,581.25,-56.25)"><stop offset="0" style="stop-color:#00f;stop-opacity:1"/><stop offset="1" style="stop-color:#2c31ff;stop-opacity:1"/></linearGradient><linearGradient id="_Linear20" x1="0" y1="0" x2="1" y2="0" gradientUnits="userSpaceOnUse" gradientTransform="matrix(2e-06,0,0,2e-06,581.25,-56.25)"><stop offset="0" style="stop-color:#00f;stop-opacity:1"/><stop offset="1" style="stop-color:#2c31ff;stop-opacity:1"/></linearGradient><linearGradient id="_Linear21" x1="0" y1="0" x2="1" y2="0" gradientUnits="userSpaceOnUse" gradientTransform="matrix(2e-06,0,0,2e-06,581.25,-56.25)"><stop offset="0" style="stop-color:#00f;stop-opacity:1"/><stop offset="1" style="stop-color:#2c31ff;stop-opacity:1"/></linearGradient><linearGradient id="_Linear22" x1="0" y1="0" x2="1" y2="0" gradientUnits="userSpaceOnUse" gradientTransform="matrix(2e-06,0,0,2e-06,581.25,-56.25)"><stop offset="0" style="stop-color:#00f;stop-opacity:1"/><stop offset="1" style="stop-color:#2c31ff;stop-opacity:1"/></linearGradient><linearGradient id="_Linear23" x1="0" y1="0" x2="1" y2="0" gradientUnits="userSpaceOnUse" gradientTransform="matrix(2e-06,0,0,2e-06,581.25,-56.25)"><stop offset="0" style="stop-color:#00f;stop-opacity:1"/><stop offset="1" style="stop-color:#2c31ff;stop-opacity:1"/></linearGradient><linearGradient id="_Linear24" x1="0" y1="0" x2="1" y2="0" gradientUnits="userSpaceOnUse" gradientTransform="matrix(2e-06,0,0,2e-06,581.25,-56.25)"><stop offset="0" style="stop-color:#00f;stop-opacity:1"/><stop offset="1" style="stop-color:#2c31ff;stop-opacity:1"/></linearGradient><linearGradient id="_Linear25" x1="0" y1="0" x2="1" y2="0" gradientUnits="userSpaceOnUse" gradientTransform="matrix(2e-06,0,0,2e-06,581.25,-56.25)"><stop offset="0" style="stop-color:#00f;stop-opacity:1"/><stop offset="1" style="stop-color:#2c31ff;stop-opacity:1"/></linearGradient><linearGradient id="_Linear26" x1="0" y1="0" x2="1" y2="0" gradientUnits="userSpaceOnUse" gradientTransform="matrix(2e-06,0,0,2e-06,581.25,-56.25)"><stop offset="0" style="stop-color:#00f;stop-opacity:1"/><stop offset="1" style="stop-color:#2c31ff;stop-opacity:1"/></linearGradient><linearGradient id="_Linear27" x1="0" y1="0" x2="1" y2="0" gradientUnits="userSpaceOnUse" gradientTransform="matrix(2e-06,0,0,2e-06,581.25,-56.25)"><stop offset="0" style="stop-color:#00f;stop-opacity:1"/><stop offset="1" style="stop-color:#2c31ff;stop-opacity:1"/></linearGradient><linearGradient id="_Linear28" x1="0" y1="0" x2="1" y2="0" gradientUnits="userSpaceOnUse" gradientTransform="matrix(2e-06,0,0,2e-06,581.25,-56.25)"><stop offset="0" style="stop-color:#00f;stop-opacity:1"/><stop offset="1" style="stop-color:#2c31ff;stop-opacity:1"/></linearGradient><linearGradient id="_Linear29" x1="0" y1="0" x2="1" y2="0" gradientUnits="userSpaceOnUse" gradientTransform="matrix(2e-06,0,0,2e-06,581.25,-56.25)"><stop offset="0" style="stop-color:#00f;stop-opacity:1"/><stop offset="1" style="stop-color:#2c31ff;stop-opacity:1"/></linearGradient><linearGradient id="_Linear30" x1="0" y1="0" x2="1" y2="0" gradientUnits="userSpaceOnUse" gradientTransform="matrix(2e-06,0,0,2e-06,581.25,-56.25)"><stop offset="0" style="stop-color:#00f;stop-opacity:1"/><stop offset="1" style="stop-color:#2c31ff;stop-opacity:1"/></linearGradient></defs></svg>