<?xml version="1.0" encoding="UTF-8" standalone="no"?><!DOCTYPE svg PUBLIC "-//W3C//DTD SVG 1.1//EN" "http://www.w3.org/Graphics/SVG/1.1/DTD/svg11.dtd"><svg width="100%" height="100%" viewBox="0 0 356 356" version="1.1" xmlns="http://www.w3.org/2000/svg" xmlns:xlink="http://www.w3.org/1999/xlink" xml:space="preserve" xmlns:serif="http://www.serif.com/" style="fill-rule:evenodd;clip-rule:evenodd;stroke-linecap:round;stroke-linejoin:round;stroke-miterlimit:1.5;"><path d="M177.375,0c97.896,0 177.375,79.479 177.375,177.375c0,97.896 -79.479,177.375 -177.375,177.375c-97.896,0 -177.375,-79.479 -177.375,-177.375c0,-97.896 79.479,-177.375 177.375,-177.375Zm0,23.672c84.831,0 153.703,68.872 153.703,153.703c0,84.831 -68.872,153.703 -153.703,153.703c-84.831,0 -153.703,-68.872 -153.703,-153.703c0,-84.831 68.872,-153.703 153.703,-153.703Z" style="fill:#57f557;"/><g><path d="M179.25,281.25l0,-213l-6.75,57.75l-6,49.5l12.75,105.75Z" style="fill:#55f557;"/><clipPath id="_clip1"><path d="M179.25,281.25l0,-213l-6.75,57.75l-6,49.5l12.75,105.75Z"/></clipPath><g clip-path="url(#_clip1)"><rect x="0" y="0" width="356" height="356" style="fill:#57f557;"/></g><path d="M179.25,281.25l0,-213l6.75,57.75l6,49.5l-12.75,105.75Z" style="fill:#55f557;"/><clipPath id="_clip2"><path d="M179.25,281.25l0,-213l6.75,57.75l6,49.5l-12.75,105.75Z"/></clipPath><g clip-path="url(#_clip2)"><rect x="0" y="0" width="356" height="356" style="fill:#57f557;"/></g></g><circle cx="179.25" cy="174.75" r="11.25"/><path d="M179.25,159l0,-15l3.75,3.75l-7.5,0l3.75,-3.75" style="stroke:#000;stroke-width:2px;"/></svg>