<?xml version="1.0" encoding="UTF-8" standalone="no"?><!DOCTYPE svg PUBLIC "-//W3C//DTD SVG 1.1//EN" "http://www.w3.org/Graphics/SVG/1.1/DTD/svg11.dtd"><svg width="100%" height="100%" viewBox="0 0 26 213" version="1.1" xmlns="http://www.w3.org/2000/svg" xmlns:xlink="http://www.w3.org/1999/xlink" xml:space="preserve" xmlns:serif="http://www.serif.com/" style="fill-rule:evenodd;clip-rule:evenodd;stroke-linecap:round;stroke-linejoin:round;stroke-miterlimit:1.5;"><g><path d="M12.75,213l0,-213l-6.75,57.75l-6,49.5l12.75,105.75Z" style="fill:#55f557;"/><clipPath id="_clip1"><path d="M12.75,213l0,-213l-6.75,57.75l-6,49.5l12.75,105.75Z"/></clipPath><g clip-path="url(#_clip1)"><rect x="0" y="0" width="26" height="213" style="fill:#57f557;"/></g><path d="M12.75,213l0,-213l6.75,57.75l6,49.5l-12.75,105.75Z" style="fill:#55f557;"/><clipPath id="_clip2"><path d="M12.75,213l0,-213l6.75,57.75l6,49.5l-12.75,105.75Z"/></clipPath><g clip-path="url(#_clip2)"><rect x="0" y="0" width="26" height="213" style="fill:#57f557;"/></g><path d="M12.75,90.75l0,-15l3.75,3.75l-7.5,0l3.75,-3.75" style="stroke:#000;stroke-width:2px;"/><circle cx="12.75" cy="106.5" r="11.25"/></g></svg>