<?xml version="1.0" encoding="UTF-8" standalone="no"?><!DOCTYPE svg PUBLIC "-//W3C//DTD SVG 1.1//EN" "http://www.w3.org/Graphics/SVG/1.1/DTD/svg11.dtd"><svg width="100%" height="100%" viewBox="0 0 833 624" version="1.1" xmlns="http://www.w3.org/2000/svg" xmlns:xlink="http://www.w3.org/1999/xlink" xml:space="preserve" xmlns:serif="http://www.serif.com/" style="fill-rule:evenodd;clip-rule:evenodd;stroke-linecap:round;stroke-linejoin:round;stroke-miterlimit:1.5;"><g id="Strafe"><path id="Frame" d="M210.75,287.719l0,28.031l0,-43.125l0,-43.125l0,28.031l204,0l0,-28.031l0,86.25l0,-28.031l-204,0Z" style="fill:none;stroke:#fff;stroke-width:3.83px;"/><g id="Claw"><rect x="282" y="230.25" width="65.25" height="27" style="fill:none;stroke:#55f557;stroke-width:5.67px;"/><path d="M269.25,243l25.5,0" style="fill:none;stroke:#55f557;stroke-width:5.67px;"/><path d="M334.5,243l25.5,0" style="fill:none;stroke:#55f557;stroke-width:5.67px;"/></g></g><g id="Elevator"><g><path d="M514.5,357l12,-6l0,-9.75l27,0l0,11.25l-13.5,4.5l-25.5,0Z" style="fill:none;stroke:#55f557;stroke-width:4.29px;"/><path d="M553.5,342l15.75,0l0,-21.75l0,42.75" style="fill:none;stroke:#55f557;stroke-width:4.29px;"/><path d="M560.25,287.25l0,107.25" style="fill:none;stroke:#ff0;stroke-width:5.21px;"/></g><g id="Cargo"><circle cx="514.875" cy="427.875" r="31.875" style="fill:none;stroke:#ff7c00;stroke-width:4.29px;"/><path d="M556.5,438.563l0,7.687l0,-15.375l0,-15.375l0,7.688l38.488,0l0,-7.688l19.262,15.375l-19.262,15.375l0,-7.688l-38.488,0Z" style="fill:none;stroke:#55f557;stroke-width:3.83px;"/></g><path d="M476.25,466.5l17.25,0l52.5,-69.75l0,-39.75l-62.25,0c0,0 0,35.653 0,36c0,0.347 -7.5,7.5 -7.5,7.5l0,66Z" style="fill:none;stroke:#55f557;stroke-width:3.83px;"/></g><g id="Drivetrain"><g><path d="M276,513l0,19.5l263.25,0l0,-19.5l-70.5,0l0,-415.5l-18,0l0,245.25l-169.5,170.25l-5.25,0Z" style="fill:none;stroke:#55f557;stroke-width:3.83px;"/><path d="M301.5,513l4.147,-4.175l145.103,-144.802l0,-22.023l0,171l-149.25,0Z" style="fill:none;stroke:#55f557;stroke-width:3.83px;stroke-linejoin:bevel;"/><path d="M301.5,513l-19.5,0.75" style="fill:none;stroke:#55f557;stroke-width:3.83px;"/></g><path d="M503.25,493.5c14.902,0 27,12.098 27,27c0,14.902 -12.098,27 -27,27c-14.902,0 -27,-12.098 -27,-27c0,-14.902 12.098,-27 27,-27Zm0,6.75c11.176,0 20.25,9.074 20.25,20.25c0,11.176 -9.074,20.25 -20.25,20.25c-11.176,0 -20.25,-9.074 -20.25,-20.25c0,-11.176 9.074,-20.25 20.25,-20.25Z" style="stroke:#fff;stroke-width:2.46px;"/><path d="M312,494.25c14.902,0 27,12.098 27,27c0,14.902 -12.098,27 -27,27c-14.902,0 -27,-12.098 -27,-27c0,-14.902 12.098,-27 27,-27Zm0,6.75c11.176,0 20.25,9.074 20.25,20.25c0,11.176 -9.074,20.25 -20.25,20.25c-11.176,0 -20.25,-9.074 -20.25,-20.25c0,-11.176 9.074,-20.25 20.25,-20.25Z" style="stroke:#fff;stroke-width:2.46px;"/><path d="M408,495c14.902,0 27,12.098 27,27c0,14.902 -12.098,27 -27,27c-14.902,0 -27,-12.098 -27,-27c0,-14.902 12.098,-27 27,-27Zm0,6.75c11.176,0 20.25,9.074 20.25,20.25c0,11.176 -9.074,20.25 -20.25,20.25c-11.176,0 -20.25,-9.074 -20.25,-20.25c0,-11.176 9.074,-20.25 20.25,-20.25Z" style="stroke:#fff;stroke-width:2.46px;"/></g></svg>