<?xml version="1.0" encoding="UTF-8" standalone="no"?><!DOCTYPE svg PUBLIC "-//W3C//DTD SVG 1.1//EN" "http://www.w3.org/Graphics/SVG/1.1/DTD/svg11.dtd"><svg width="100%" height="100%" viewBox="0 0 268 455" version="1.1" xmlns="http://www.w3.org/2000/svg" xmlns:xlink="http://www.w3.org/1999/xlink" xml:space="preserve" xmlns:serif="http://www.serif.com/" style="fill-rule:evenodd;clip-rule:evenodd;stroke-linecap:round;stroke-linejoin:round;stroke-miterlimit:1.5;"><g id="Drivetrain"><g><path d="M1.917,417.417l0,19.5l263.25,0l0,-19.5l-70.5,0l0,-415.5l-18,0l0,245.25l-169.5,170.25l-5.25,0Z" style="fill:none;stroke:#55f557;stroke-width:3.83px;"/><path d="M27.417,417.417l4.147,-4.176l145.103,-144.802l0,148.978l-149.25,0Z" style="fill:none;stroke:#55f557;stroke-width:3.83px;stroke-linejoin:bevel;"/></g><path d="M229.167,397.917c14.901,0 27,12.098 27,27c0,14.901 -12.099,27 -27,27c-14.902,0 -27,-12.099 -27,-27c0,-14.902 12.098,-27 27,-27Zm0,6.75c11.176,0 20.25,9.073 20.25,20.25c0,11.176 -9.074,20.25 -20.25,20.25c-11.177,0 -20.25,-9.074 -20.25,-20.25c0,-11.177 9.073,-20.25 20.25,-20.25Z" style="stroke:#fff;stroke-width:2.46px;"/><path d="M37.917,398.667c14.901,0 27,12.098 27,27c0,14.901 -12.099,27 -27,27c-14.902,0 -27,-12.099 -27,-27c0,-14.902 12.098,-27 27,-27Zm0,6.75c11.176,0 20.25,9.073 20.25,20.25c0,11.176 -9.074,20.25 -20.25,20.25c-11.177,0 -20.25,-9.074 -20.25,-20.25c0,-11.177 9.073,-20.25 20.25,-20.25Z" style="stroke:#fff;stroke-width:2.46px;"/><path d="M133.917,399.417c14.901,0 27,12.098 27,27c0,14.901 -12.099,27 -27,27c-14.902,0 -27,-12.099 -27,-27c0,-14.902 12.098,-27 27,-27Zm0,6.75c11.176,0 20.25,9.073 20.25,20.25c0,11.176 -9.074,20.25 -20.25,20.25c-11.177,0 -20.25,-9.074 -20.25,-20.25c0,-11.177 9.073,-20.25 20.25,-20.25Z" style="stroke:#fff;stroke-width:2.46px;"/></g></svg>